<svg version="1.2" xmlns="http://www.w3.org/2000/svg" viewBox="0 0 1704 1704" width="1704" height="1704">
	<title>logo</title>
	<style>
		.s0 { fill: #153145 } 
	</style>
	<path id="Shape 1" fill-rule="evenodd" class="s0" d="m878.4 110.6c99.5-4 200.8 17.1 267.8 39.2 301.3 99.3 539.9 429.3 506.3 467.1-3.5 4-10.3 4.8-19.6 3.2-149.5-249-420.8-404.3-744.7-431.1-310-25.7-622.3 283.7-548.8 636.9 48.4 232.5 303.3 623.4 614.1 473.7 229.5-110.5 238.7-558.8-88.2-552.1q0 1.7 0 3.3c327.7 37.4 206.1 599.1-150.2 473.7-330.3-116.3-383-656-71.9-836.3 400.7-232.2 811.7 171.4 921.2 490 60.8 177 71 509.4-71.9 601q-4.9-3.2-9.8-6.5 0-3.3 0-6.5c51.5-152.8 84.1-328.8 32.7-499.8-88.4-293.7-482.2-761.8-852.6-496.5-221.8 158.8-189.3 514.6 29.4 653.3 149.8 95 369.8-28.7 264.6-235.2 14.3 154.7-108.4 286.7-258.1 160.1-178.1-150.8-138.3-442.3 78.4-519.4 462.4-164.6 773.4 547.6 467.1 895-78 88.5-227.2 174.8-365.8 169.9-445.1-15.9-689.8-306.8-800.3-686-32.3-110.8-47-304 0-414.8 7.6-4.2 14.2-5.5 19.6-3.3 26 10.5 6.3 94.9 6.5 186.2 0.1 59.6 15.7 154.3 52.3 251.5 106.1 281.7 383.4 663 777.4 581.4 113.1-23.4 207.7-74 267.9-150.2 213.2-270 51.1-679.3-232-761.1-297.8-86.2-414.7 312.3-189.4 405-247.4-216.6 136.7-485.1 339.7-215.6 221.7 294.4-24.4 614.3-307.1 617.4-367.7 4-680.6-533-509.5-930.9 69.4-161.5 209.4-275.6 385.4-330 61.4-19.1 124.9-30.1 189.5-32.6z"/>
</svg>